<svg xmlns="http://www.w3.org/2000/svg" width="1920" height="610"><path d="M291,860L104,857L437,868Z" fill="#bd6a59" stroke="#bd6a59" stroke-width="1.51"/><path d="M743,836L437,868L873,836Z" fill="#bd503d" stroke="#bd503d" stroke-width="1.51"/><path d="M405,-237L758,-241L1213,-267Z" fill="#ffb8a2" stroke="#ffb8a2" stroke-width="1.51"/><path d="M-167,-244L405,-237L1213,-267Z" fill="#ffcdb9" stroke="#ffcdb9" stroke-width="1.51"/><path d="M1144,828L873,836L1649,863Z" fill="#b72520" stroke="#b72520" stroke-width="1.51"/><path d="M873,836L437,868L1649,863Z" fill="#b9392a" stroke="#b9392a" stroke-width="1.51"/><path d="M1939,-44L1925,42L2057,126Z" fill="#c7644f" stroke="#c7644f" stroke-width="1.51"/><path d="M1934,793L1817,790L2063,853Z" fill="#900913" stroke="#900913" stroke-width="1.51"/><path d="M1817,790L1649,863L2063,853Z" fill="#950a13" stroke="#950a13" stroke-width="1.51"/><path d="M1825,-193L1905,-187L2065,-201Z" fill="#d38170" stroke="#d38170" stroke-width="1.51"/><path d="M1625,-248L1825,-193L2065,-201Z" fill="#dd8675" stroke="#dd8675" stroke-width="1.51"/><path d="M1939,-44L2057,126L2080,-105Z" fill="#c26956" stroke="#c26956" stroke-width="1.51"/><path d="M1918,364L2112,412L2113,223Z" fill="#ba3729" stroke="#ba3729" stroke-width="1.51"/><path d="M1913,262L1918,364L2113,223Z" fill="#c24130" stroke="#c24130" stroke-width="1.51"/><path d="M2080,-105L2057,126L2113,223Z" fill="#ba5a48" stroke="#ba5a48" stroke-width="1.51"/><path d="M1966,697L2063,853L2124,703Z" fill="#910913" stroke="#910913" stroke-width="1.51"/><path d="M2112,412L1914,486L2129,485Z" fill="#b4201e" stroke="#b4201e" stroke-width="1.51"/><path d="M1966,697L2124,703L2129,485Z" fill="#9e0c16" stroke="#9e0c16" stroke-width="1.51"/><path d="M1914,486L1966,697L2129,485Z" fill="#ae161a" stroke="#ae161a" stroke-width="1.51"/><path d="M2113,223L2112,412L2129,485Z" fill="#b02e25" stroke="#b02e25" stroke-width="1.51"/><path d="M1966,697L1934,793L2063,853Z" fill="#920913" stroke="#920913" stroke-width="1.51"/><path d="M1918,364L1914,486L2112,412Z" fill="#bd2a22" stroke="#bd2a22" stroke-width="1.51"/><path d="M2057,126L1913,262L2113,223Z" fill="#be4c39" stroke="#be4c39" stroke-width="1.51"/><path d="M2065,-201L1905,-187L2080,-105Z" fill="#c77b6c" stroke="#c77b6c" stroke-width="1.51"/><path d="M1905,-187L1939,-44L2080,-105Z" fill="#cb7866" stroke="#cb7866" stroke-width="1.51"/><path d="M1925,42L1913,262L2057,126Z" fill="#c65642" stroke="#c65642" stroke-width="1.51"/><path d="M1794,95L1801,221L1913,262Z" fill="#d3533d" stroke="#d3533d" stroke-width="1.51"/><path d="M1794,95L1913,262L1925,42Z" fill="#d05b45" stroke="#d05b45" stroke-width="1.51"/><path d="M1825,652L1817,790L1934,793Z" fill="#a61016" stroke="#a61016" stroke-width="1.51"/><path d="M1825,652L1934,793L1966,697Z" fill="#a50f15" stroke="#a50f15" stroke-width="1.51"/><path d="M1914,486L1825,652L1966,697Z" fill="#b21218" stroke="#b21218" stroke-width="1.51"/><path d="M1905,-187L1825,-193L1939,-44Z" fill="#d67f6c" stroke="#d67f6c" stroke-width="1.51"/><path d="M1825,-193L1749,-57L1939,-44Z" fill="#da7c67" stroke="#da7c67" stroke-width="1.51"/><path d="M1749,-57L1925,42L1939,-44Z" fill="#d4715b" stroke="#d4715b" stroke-width="1.51"/><path d="M1751,491L1825,652L1914,486Z" fill="#c11d1c" stroke="#c11d1c" stroke-width="1.51"/><path d="M1751,491L1914,486L1918,364Z" fill="#ca2821" stroke="#ca2821" stroke-width="1.51"/><path d="M1743,360L1751,491L1918,364Z" fill="#cf3226" stroke="#cf3226" stroke-width="1.51"/><path d="M1801,221L1743,360L1913,262Z" fill="#d24632" stroke="#d24632" stroke-width="1.51"/><path d="M1913,262L1743,360L1918,364Z" fill="#cf3e2c" stroke="#cf3e2c" stroke-width="1.51"/><path d="M1749,-57L1794,95L1925,42Z" fill="#d76c55" stroke="#d76c55" stroke-width="1.51"/><path d="M1324,785L1144,828L1649,863Z" fill="#b31c1c" stroke="#b31c1c" stroke-width="1.51"/><path d="M1749,-57L1679,52L1794,95Z" fill="#dc6d55" stroke="#dc6d55" stroke-width="1.51"/><path d="M1606,681L1817,790L1825,652Z" fill="#b21218" stroke="#b21218" stroke-width="1.51"/><path d="M1751,491L1606,681L1825,652Z" fill="#c0151a" stroke="#c0151a" stroke-width="1.51"/><path d="M1657,-92L1749,-57L1825,-193Z" fill="#e1806b" stroke="#e1806b" stroke-width="1.51"/><path d="M1625,-248L1657,-92L1825,-193Z" fill="#e58773" stroke="#e58773" stroke-width="1.51"/><path d="M1531,801L1324,785L1649,863Z" fill="#ae1419" stroke="#ae1419" stroke-width="1.51"/><path d="M1643,490L1606,681L1751,491Z" fill="#ca1e1e" stroke="#ca1e1e" stroke-width="1.51"/><path d="M1794,95L1599,191L1801,221Z" fill="#da5941" stroke="#da5941" stroke-width="1.51"/><path d="M1606,681L1649,863L1817,790Z" fill="#aa1016" stroke="#aa1016" stroke-width="1.51"/><path d="M1679,52L1599,191L1794,95Z" fill="#de624a" stroke="#de624a" stroke-width="1.51"/><path d="M1599,191L1743,360L1801,221Z" fill="#da4c37" stroke="#da4c37" stroke-width="1.51"/><path d="M1607,417L1643,490L1743,360Z" fill="#d83126" stroke="#d83126" stroke-width="1.51"/><path d="M1599,191L1607,417L1743,360Z" fill="#dd4230" stroke="#dd4230" stroke-width="1.51"/><path d="M1657,-92L1679,52L1749,-57Z" fill="#e1775f" stroke="#e1775f" stroke-width="1.51"/><path d="M1743,360L1643,490L1751,491Z" fill="#d42a23" stroke="#d42a23" stroke-width="1.51"/><path d="M1303,-204L1529,-183L1625,-248Z" fill="#f4907b" stroke="#f4907b" stroke-width="1.51"/><path d="M1213,-267L1303,-204L1625,-248Z" fill="#fb9681" stroke="#fb9681" stroke-width="1.51"/><path d="M1469,526L1606,681L1643,490Z" fill="#ce1e1f" stroke="#ce1e1f" stroke-width="1.51"/><path d="M1606,681L1531,801L1649,863Z" fill="#b01118" stroke="#b01118" stroke-width="1.51"/><path d="M1467,-62L1482,40L1657,-92Z" fill="#ec7c63" stroke="#ec7c63" stroke-width="1.51"/><path d="M1625,-248L1529,-183L1657,-92Z" fill="#eb8975" stroke="#eb8975" stroke-width="1.51"/><path d="M1657,-92L1482,40L1679,52Z" fill="#e5755d" stroke="#e5755d" stroke-width="1.51"/><path d="M1482,40L1599,191L1679,52Z" fill="#e5674f" stroke="#e5674f" stroke-width="1.51"/><path d="M1469,526L1528,681L1606,681Z" fill="#c91a1d" stroke="#c91a1d" stroke-width="1.51"/><path d="M1599,191L1454,210L1607,417Z" fill="#e54d37" stroke="#e54d37" stroke-width="1.51"/><path d="M1454,210L1471,418L1607,417Z" fill="#e54230" stroke="#e54230" stroke-width="1.51"/><path d="M1529,-183L1467,-62L1657,-92Z" fill="#ed856e" stroke="#ed856e" stroke-width="1.51"/><path d="M758,-241L1016,-218L1213,-267Z" fill="#ffac93" stroke="#ffac93" stroke-width="1.51"/><path d="M1607,417L1469,526L1643,490Z" fill="#d92823" stroke="#d92823" stroke-width="1.51"/><path d="M1528,681L1531,801L1606,681Z" fill="#bc151a" stroke="#bc151a" stroke-width="1.51"/><path d="M1471,418L1469,526L1607,417Z" fill="#df2e25" stroke="#df2e25" stroke-width="1.51"/><path d="M1482,40L1454,210L1599,191Z" fill="#e86248" stroke="#e86248" stroke-width="1.51"/><path d="M-167,-244L124,-211L405,-237Z" fill="#ffe2d5" stroke="#ffe2d5" stroke-width="1.51"/><path d="M758,-241L854,-219L1016,-218Z" fill="#ffb29a" stroke="#ffb29a" stroke-width="1.51"/><path d="M1454,210L1363,381L1471,418Z" fill="#ea4833" stroke="#ea4833" stroke-width="1.51"/><path d="M1469,526L1336,660L1528,681Z" fill="#d01f1f" stroke="#d01f1f" stroke-width="1.51"/><path d="M1336,660L1324,785L1528,681Z" fill="#c8201e" stroke="#c8201e" stroke-width="1.51"/><path d="M1528,681L1324,785L1531,801Z" fill="#be1a1b" stroke="#be1a1b" stroke-width="1.51"/><path d="M1303,-204L1467,-62L1529,-183Z" fill="#f58e77" stroke="#f58e77" stroke-width="1.51"/><path d="M1380,209L1363,381L1454,210Z" fill="#ee543c" stroke="#ee543c" stroke-width="1.51"/><path d="M1303,-204L1355,-50L1467,-62Z" fill="#f78b72" stroke="#f78b72" stroke-width="1.51"/><path d="M1302,493L1469,526L1471,418Z" fill="#e23127" stroke="#e23127" stroke-width="1.51"/><path d="M1363,381L1302,493L1471,418Z" fill="#e93a2b" stroke="#e93a2b" stroke-width="1.51"/><path d="M1380,209L1454,210L1482,40Z" fill="#ec644a" stroke="#ec644a" stroke-width="1.51"/><path d="M1304,104L1380,209L1482,40Z" fill="#f06b50" stroke="#f06b50" stroke-width="1.51"/><path d="M1467,-62L1355,-50L1482,40Z" fill="#f17e64" stroke="#f17e64" stroke-width="1.51"/><path d="M1355,-50L1304,104L1482,40Z" fill="#f2795e" stroke="#f2795e" stroke-width="1.51"/><path d="M1302,493L1336,660L1469,526Z" fill="#dc2a23" stroke="#dc2a23" stroke-width="1.51"/><path d="M1075,814L873,836L1144,828Z" fill="#be3729" stroke="#be3729" stroke-width="1.51"/><path d="M1168,214L1363,381L1380,209Z" fill="#f4583f" stroke="#f4583f" stroke-width="1.51"/><path d="M1304,104L1168,214L1380,209Z" fill="#f5674b" stroke="#f5674b" stroke-width="1.51"/><path d="M1303,-204L1178,-82L1355,-50Z" fill="#fd9076" stroke="#fd9076" stroke-width="1.51"/><path d="M1152,36L1304,104L1355,-50Z" fill="#f97e61" stroke="#f97e61" stroke-width="1.51"/><path d="M1178,-82L1152,36L1355,-50Z" fill="#fc886c" stroke="#fc886c" stroke-width="1.51"/><path d="M1146,416L1302,493L1363,381Z" fill="#f03f2e" stroke="#f03f2e" stroke-width="1.51"/><path d="M1168,214L1146,416L1363,381Z" fill="#f55239" stroke="#f55239" stroke-width="1.51"/><path d="M1302,493L1174,519L1336,660Z" fill="#e23026" stroke="#e23026" stroke-width="1.51"/><path d="M1174,519L1203,690L1336,660Z" fill="#db2d25" stroke="#db2d25" stroke-width="1.51"/><path d="M1203,690L1324,785L1336,660Z" fill="#ce2621" stroke="#ce2621" stroke-width="1.51"/><path d="M1203,690L1144,828L1324,785Z" fill="#c82a22" stroke="#c82a22" stroke-width="1.51"/><path d="M1146,416L1174,519L1302,493Z" fill="#ee3e2d" stroke="#ee3e2d" stroke-width="1.51"/><path d="M1213,-267L1178,-82L1303,-204Z" fill="#ff9981" stroke="#ff9981" stroke-width="1.51"/><path d="M1152,36L1168,214L1304,104Z" fill="#f97456" stroke="#f97456" stroke-width="1.51"/><path d="M1048,335L1146,416L1168,214Z" fill="#f85c40" stroke="#f85c40" stroke-width="1.51"/><path d="M1068,245L1048,335L1168,214Z" fill="#f96748" stroke="#f96748" stroke-width="1.51"/><path d="M1174,519L1075,720L1203,690Z" fill="#da3529" stroke="#da3529" stroke-width="1.51"/><path d="M1075,720L1144,828L1203,690Z" fill="#cd3326" stroke="#cd3326" stroke-width="1.51"/><path d="M1016,-218L1178,-82L1213,-267Z" fill="#ff9f87" stroke="#ff9f87" stroke-width="1.51"/><path d="M1152,36L1018,65L1168,214Z" fill="#fb7c5d" stroke="#fb7c5d" stroke-width="1.51"/><path d="M1029,495L1075,720L1174,519Z" fill="#e43f2e" stroke="#e43f2e" stroke-width="1.51"/><path d="M1075,720L1075,814L1144,828Z" fill="#c63427" stroke="#c63427" stroke-width="1.51"/><path d="M1018,65L1068,245L1168,214Z" fill="#fa7455" stroke="#fa7455" stroke-width="1.51"/><path d="M1146,416L1029,495L1174,519Z" fill="#f04632" stroke="#f04632" stroke-width="1.51"/><path d="M1020,-72L1152,36L1178,-82Z" fill="#fe9073" stroke="#fe9073" stroke-width="1.51"/><path d="M1016,-218L1020,-72L1178,-82Z" fill="#ff9e83" stroke="#ff9e83" stroke-width="1.51"/><path d="M1020,-72L1018,65L1152,36Z" fill="#fd8d6f" stroke="#fd8d6f" stroke-width="1.51"/><path d="M1048,335L1029,495L1146,416Z" fill="#f55239" stroke="#f55239" stroke-width="1.51"/><path d="M893,364L1029,495L1048,335Z" fill="#f75b3f" stroke="#f75b3f" stroke-width="1.51"/><path d="M1018,65L915,98L1068,245Z" fill="#fc7f5f" stroke="#fc7f5f" stroke-width="1.51"/><path d="M915,98L867,236L1068,245Z" fill="#fc7a59" stroke="#fc7a59" stroke-width="1.51"/><path d="M1029,495L850,653L1075,720Z" fill="#e04531" stroke="#e04531" stroke-width="1.51"/><path d="M850,653L873,836L1075,720Z" fill="#d24531" stroke="#d24531" stroke-width="1.51"/><path d="M1075,720L873,836L1075,814Z" fill="#c73b2b" stroke="#c73b2b" stroke-width="1.51"/><path d="M867,236L1048,335L1068,245Z" fill="#fb6c4d" stroke="#fb6c4d" stroke-width="1.51"/><path d="M898,-77L1018,65L1020,-72Z" fill="#ff9779" stroke="#ff9779" stroke-width="1.51"/><path d="M1016,-218L898,-77L1020,-72Z" fill="#ffa387" stroke="#ffa387" stroke-width="1.51"/><path d="M857,498L850,653L1029,495Z" fill="#ea5039" stroke="#ea5039" stroke-width="1.51"/><path d="M867,236L893,364L1048,335Z" fill="#fb6b4b" stroke="#fb6b4b" stroke-width="1.51"/><path d="M854,-219L898,-77L1016,-218Z" fill="#ffab91" stroke="#ffab91" stroke-width="1.51"/><path d="M898,-77L915,98L1018,65Z" fill="#fe9272" stroke="#fe9272" stroke-width="1.51"/><path d="M893,364L857,498L1029,495Z" fill="#f5583d" stroke="#f5583d" stroke-width="1.51"/><path d="M405,-237L592,-198L758,-241Z" fill="#ffc4af" stroke="#ffc4af" stroke-width="1.51"/><path d="M850,653L749,723L873,836Z" fill="#d34d38" stroke="#d34d38" stroke-width="1.51"/><path d="M854,-219L748,-113L898,-77Z" fill="#ffae94" stroke="#ffae94" stroke-width="1.51"/><path d="M748,-113L700,76L898,-77Z" fill="#ffa588" stroke="#ffa588" stroke-width="1.51"/><path d="M898,-77L700,76L915,98Z" fill="#fd9879" stroke="#fd9879" stroke-width="1.51"/><path d="M700,76L867,236L915,98Z" fill="#fc8a6a" stroke="#fc8a6a" stroke-width="1.51"/><path d="M779,505L850,653L857,498Z" fill="#eb563e" stroke="#eb563e" stroke-width="1.51"/><path d="M698,235L733,426L867,236Z" fill="#fc7858" stroke="#fc7858" stroke-width="1.51"/><path d="M700,76L698,235L867,236Z" fill="#fc8968" stroke="#fc8968" stroke-width="1.51"/><path d="M867,236L733,426L893,364Z" fill="#fa6e4f" stroke="#fa6e4f" stroke-width="1.51"/><path d="M733,426L857,498L893,364Z" fill="#f76246" stroke="#f76246" stroke-width="1.51"/><path d="M733,426L779,505L857,498Z" fill="#f46045" stroke="#f46045" stroke-width="1.51"/><path d="M749,723L743,836L873,836Z" fill="#c74c38" stroke="#c74c38" stroke-width="1.51"/><path d="M758,-241L748,-113L854,-219Z" fill="#ffb59c" stroke="#ffb59c" stroke-width="1.51"/><path d="M779,505L749,723L850,653Z" fill="#e1543d" stroke="#e1543d" stroke-width="1.51"/><path d="M574,792L437,868L743,836Z" fill="#c15845" stroke="#c15845" stroke-width="1.51"/><path d="M602,-25L700,76L748,-113Z" fill="#fea88c" stroke="#fea88c" stroke-width="1.51"/><path d="M552,564L541,674L749,723Z" fill="#df6048" stroke="#df6048" stroke-width="1.51"/><path d="M552,564L749,723L779,505Z" fill="#e65d44" stroke="#e65d44" stroke-width="1.51"/><path d="M733,426L552,564L779,505Z" fill="#f2654a" stroke="#f2654a" stroke-width="1.51"/><path d="M698,235L556,364L733,426Z" fill="#fb7a5a" stroke="#fb7a5a" stroke-width="1.51"/><path d="M574,792L743,836L749,723Z" fill="#cb543f" stroke="#cb543f" stroke-width="1.51"/><path d="M592,-198L748,-113L758,-241Z" fill="#ffb9a2" stroke="#ffb9a2" stroke-width="1.51"/><path d="M541,674L574,792L749,723Z" fill="#d55c45" stroke="#d55c45" stroke-width="1.51"/><path d="M602,88L698,235L700,76Z" fill="#fc9575" stroke="#fc9575" stroke-width="1.51"/><path d="M592,-198L602,-25L748,-113Z" fill="#ffb69d" stroke="#ffb69d" stroke-width="1.51"/><path d="M556,364L552,564L733,426Z" fill="#f76f52" stroke="#f76f52" stroke-width="1.51"/><path d="M602,88L543,242L698,235Z" fill="#fc9171" stroke="#fc9171" stroke-width="1.51"/><path d="M543,242L556,364L698,235Z" fill="#fd8766" stroke="#fd8766" stroke-width="1.51"/><path d="M602,-25L602,88L700,76Z" fill="#fda385" stroke="#fda385" stroke-width="1.51"/><path d="M471,79L447,194L543,242Z" fill="#fd9c7d" stroke="#fd9c7d" stroke-width="1.51"/><path d="M398,493L552,564L556,364Z" fill="#f77659" stroke="#f77659" stroke-width="1.51"/><path d="M592,-198L473,-70L602,-25Z" fill="#ffbaa2" stroke="#ffbaa2" stroke-width="1.51"/><path d="M473,-70L471,79L602,-25Z" fill="#fdb296" stroke="#fdb296" stroke-width="1.51"/><path d="M602,-25L471,79L602,88Z" fill="#fda88b" stroke="#fda88b" stroke-width="1.51"/><path d="M471,79L543,242L602,88Z" fill="#fd9d7e" stroke="#fd9d7e" stroke-width="1.51"/><path d="M405,-237L473,-70L592,-198Z" fill="#ffc6b1" stroke="#ffc6b1" stroke-width="1.51"/><path d="M401,359L398,493L556,364Z" fill="#fb8163" stroke="#fb8163" stroke-width="1.51"/><path d="M541,674L422,725L574,792Z" fill="#d6644d" stroke="#d6644d" stroke-width="1.51"/><path d="M422,725L437,868L574,792Z" fill="#ca634d" stroke="#ca634d" stroke-width="1.51"/><path d="M422,725L541,674L552,564Z" fill="#e06850" stroke="#e06850" stroke-width="1.51"/><path d="M398,493L422,725L552,564Z" fill="#e96f56" stroke="#e96f56" stroke-width="1.51"/><path d="M543,242L401,359L556,364Z" fill="#fd8869" stroke="#fd8869" stroke-width="1.51"/><path d="M447,194L401,359L543,242Z" fill="#fe9273" stroke="#fe9273" stroke-width="1.51"/><path d="M398,493L304,563L422,725Z" fill="#ea755c" stroke="#ea755c" stroke-width="1.51"/><path d="M326,268L401,359L447,194Z" fill="#fe9676" stroke="#fe9676" stroke-width="1.51"/><path d="M311,109L447,194L471,79Z" fill="#fca78a" stroke="#fca78a" stroke-width="1.51"/><path d="M328,-176L262,-77L473,-70Z" fill="#fdc9b4" stroke="#fdc9b4" stroke-width="1.51"/><path d="M311,109L471,79L473,-70Z" fill="#fdb397" stroke="#fdb397" stroke-width="1.51"/><path d="M262,-77L311,109L473,-70Z" fill="#fdbda5" stroke="#fdbda5" stroke-width="1.51"/><path d="M405,-237L328,-176L473,-70Z" fill="#fecbb7" stroke="#fecbb7" stroke-width="1.51"/><path d="M304,563L289,714L422,725Z" fill="#e0745c" stroke="#e0745c" stroke-width="1.51"/><path d="M422,725L291,860L437,868Z" fill="#c66753" stroke="#c66753" stroke-width="1.51"/><path d="M311,109L326,268L447,194Z" fill="#fda284" stroke="#fda284" stroke-width="1.51"/><path d="M285,418L398,493L401,359Z" fill="#fb8668" stroke="#fb8668" stroke-width="1.51"/><path d="M124,-211L328,-176L405,-237Z" fill="#ffd6c6" stroke="#ffd6c6" stroke-width="1.51"/><path d="M289,714L291,860L422,725Z" fill="#d26f59" stroke="#d26f59" stroke-width="1.51"/><path d="M326,268L285,418L401,359Z" fill="#fd9172" stroke="#fd9172" stroke-width="1.51"/><path d="M285,418L304,563L398,493Z" fill="#f68165" stroke="#f68165" stroke-width="1.51"/><path d="M285,418L161,540L304,563Z" fill="#f6856a" stroke="#f6856a" stroke-width="1.51"/><path d="M171,670L289,714L304,563Z" fill="#e57a63" stroke="#e57a63" stroke-width="1.51"/><path d="M262,-77L121,68L311,109Z" fill="#fdbfa7" stroke="#fdbfa7" stroke-width="1.51"/><path d="M121,68L113,273L311,109Z" fill="#ffb298" stroke="#ffb298" stroke-width="1.51"/><path d="M150,413L285,418L326,268Z" fill="#fe9477" stroke="#fe9477" stroke-width="1.51"/><path d="M113,273L150,413L326,268Z" fill="#ff9d80" stroke="#ff9d80" stroke-width="1.51"/><path d="M311,109L113,273L326,268Z" fill="#ffa689" stroke="#ffa689" stroke-width="1.51"/><path d="M124,-211L262,-77L328,-176Z" fill="#fed5c4" stroke="#fed5c4" stroke-width="1.51"/><path d="M171,670L104,857L289,714Z" fill="#d97964" stroke="#d97964" stroke-width="1.51"/><path d="M289,714L104,857L291,860Z" fill="#ca725f" stroke="#ca725f" stroke-width="1.51"/><path d="M161,540L171,670L304,563Z" fill="#ed8068" stroke="#ed8068" stroke-width="1.51"/><path d="M150,413L161,540L285,418Z" fill="#fd8c71" stroke="#fd8c71" stroke-width="1.51"/><path d="M124,-211L89,-63L262,-77Z" fill="#fed6c5" stroke="#fed6c5" stroke-width="1.51"/><path d="M89,-63L121,68L262,-77Z" fill="#fecbb6" stroke="#fecbb6" stroke-width="1.51"/><path d="M16,208L113,273L121,68Z" fill="#ffb59b" stroke="#ffb59b" stroke-width="1.51"/><path d="M-167,-244L-50,-180L124,-211Z" fill="#ffe7dd" stroke="#ffe7dd" stroke-width="1.51"/><path d="M150,413L-8,547L161,540Z" fill="#f98f76" stroke="#f98f76" stroke-width="1.51"/><path d="M-45,699L104,857L171,670Z" fill="#db816d" stroke="#db816d" stroke-width="1.51"/><path d="M161,540L-8,547L171,670Z" fill="#ef8770" stroke="#ef8770" stroke-width="1.51"/><path d="M-8,547L-45,699L171,670Z" fill="#e98773" stroke="#e98773" stroke-width="1.51"/><path d="M113,273L-28,365L150,413Z" fill="#ffa186" stroke="#ffa186" stroke-width="1.51"/><path d="M-20,109L16,208L121,68Z" fill="#ffbda6" stroke="#ffbda6" stroke-width="1.51"/><path d="M-28,365L-8,547L150,413Z" fill="#ff987e" stroke="#ff987e" stroke-width="1.51"/><path d="M-45,699L-48,851L104,857Z" fill="#cf7f6e" stroke="#cf7f6e" stroke-width="1.51"/><path d="M89,-63L5,-44L121,68Z" fill="#fecfbb" stroke="#fecfbb" stroke-width="1.51"/><path d="M5,-44L-20,109L121,68Z" fill="#ffc9b4" stroke="#ffc9b4" stroke-width="1.51"/><path d="M-50,-180L89,-63L124,-211Z" fill="#fee1d3" stroke="#fee1d3" stroke-width="1.51"/><path d="M-50,-180L5,-44L89,-63Z" fill="#fedbcc" stroke="#fedbcc" stroke-width="1.51"/><path d="M16,208L-28,365L113,273Z" fill="#ffab91" stroke="#ffab91" stroke-width="1.51"/><path d="M-126,789L-48,851L-45,699Z" fill="#d58373" stroke="#d58373" stroke-width="1.51"/><path d="M-202,400L-164,563L-28,365Z" fill="#ff9d86" stroke="#ff9d86" stroke-width="1.51"/><path d="M-28,365L-164,563L-8,547Z" fill="#fd9680" stroke="#fd9680" stroke-width="1.51"/><path d="M-161,48L-20,109L5,-44Z" fill="#ffcdba" stroke="#ffcdba" stroke-width="1.51"/><path d="M-20,109L-127,222L16,208Z" fill="#ffbaa2" stroke="#ffbaa2" stroke-width="1.51"/><path d="M-127,222L-28,365L16,208Z" fill="#ffaf97" stroke="#ffaf97" stroke-width="1.51"/><path d="M-164,563L-176,640L-45,699Z" fill="#ed8d7a" stroke="#ed8d7a" stroke-width="1.51"/><path d="M-164,563L-45,699L-8,547Z" fill="#f08d79" stroke="#f08d79" stroke-width="1.51"/><path d="M-50,-180L-206,-104L5,-44Z" fill="#ffe0d3" stroke="#ffe0d3" stroke-width="1.51"/><path d="M-206,-104L-161,48L5,-44Z" fill="#ffd8c8" stroke="#ffd8c8" stroke-width="1.51"/><path d="M-161,48L-127,222L-20,109Z" fill="#ffc3ad" stroke="#ffc3ad" stroke-width="1.51"/><path d="M-127,222L-202,400L-28,365Z" fill="#ffab92" stroke="#ffab92" stroke-width="1.51"/><path d="M-176,640L-126,789L-45,699Z" fill="#e28977" stroke="#e28977" stroke-width="1.51"/><path d="M-167,-244L-206,-104L-50,-180Z" fill="#ffe9df" stroke="#ffe9df" stroke-width="1.51"/><path d="M-161,48L-202,400L-127,222Z" fill="#ffb9a2" stroke="#ffb9a2" stroke-width="1.51"/><path d="M-206,-104L-202,400L-161,48Z" fill="#ffc7b3" stroke="#ffc7b3" stroke-width="1.51"/><path d="M-202,400L-176,640L-164,563Z" fill="#f99782" stroke="#f99782" stroke-width="1.51"/></svg>